<svg width="100" height="100" viewBox="0 0 100 100" fill="none" xmlns="http://www.w3.org/2000/svg">
<g clip-path="url(#clip0)">
<path d="M31.2515 82.6172H17.5797V38.4766H31.2515V82.6172ZM32.6157 24.4133C32.6157 19.9936 29.0298 16.4062 24.6124 16.4062C20.1782 16.4062 16.6016 19.9936 16.6016 24.4133C16.6016 28.8345 20.1782 32.4219 24.6124 32.4219C29.0298 32.4219 32.6157 28.8345 32.6157 24.4133ZM82.4219 58.3328C82.4219 46.4836 79.9187 37.6953 66.0767 37.6953C59.4254 37.6953 54.9606 41.0217 53.138 44.4809H53.125V38.4766H39.8438V82.6172H53.125V60.701C53.125 54.9614 54.586 49.4011 61.7004 49.4011C68.718 49.4011 68.9453 55.9647 68.9453 61.0657V82.6172H82.4219V58.3328ZM100 88.2812V11.7188C100 5.25665 94.7433 0 88.2812 0H11.7188C5.25665 0 0 5.25665 0 11.7188V88.2812C0 94.7433 5.25665 100 11.7188 100H88.2812C94.7433 100 100 94.7433 100 88.2812ZM88.2812 7.8125C90.435 7.8125 92.1875 9.56497 92.1875 11.7188V88.2812C92.1875 90.435 90.435 92.1875 88.2812 92.1875H11.7188C9.56497 92.1875 7.8125 90.435 7.8125 88.2812V11.7188C7.8125 9.56497 9.56497 7.8125 11.7188 7.8125H88.2812Z" fill="#EFEEEE"/>
</g>
<defs>
<clipPath id="clip0">
<rect width="100" height="100" fill="white"/>
</clipPath>
</defs>
</svg>
